<svg width="1202" height="302" viewBox="0 0 1202 302" fill="none" xmlns="http://www.w3.org/2000/svg">
<path d="M1.7998 151.2C1.79981 190.77 17.5191 228.72 45.4995 256.7C73.4799 284.681 111.43 300.4 151 300.4C190.57 300.4 228.52 284.681 256.5 256.7C284.481 228.72 300.2 190.77 300.2 151.2M301.8 151.2C301.8 111.63 317.519 73.6801 345.499 45.6997C373.48 17.7192 411.43 2 451 2C490.57 2 528.52 17.7192 556.5 45.6997C584.481 73.6801 600.2 111.63 600.2 151.2M601.8 151.2C601.8 190.77 617.519 228.72 645.5 256.7C673.48 284.681 711.43 300.4 751 300.4C790.57 300.4 828.52 284.681 856.5 256.7C884.481 228.72 900.2 190.77 900.2 151.2M901.8 151.2C901.8 111.63 917.519 73.6801 945.5 45.6997C973.48 17.7192 1011.43 2 1051 2C1090.57 2 1128.52 17.7192 1156.5 45.6997C1184.48 73.6801 1200.2 111.63 1200.2 151.2" stroke="url(#paint0_linear_478_910)" stroke-width="1.6" stroke-dasharray="6 6"/>
<path d="M2.1 152C2.10001 112.509 17.7876 74.636 45.7118 46.7118C73.636 18.7876 111.509 3.1 151 3.1C190.491 3.1 228.364 18.7876 256.288 46.7118C284.212 74.636 299.9 112.509 299.9 152" stroke="#171717" stroke-width="2.2"/>
<path d="M302.1 152C302.1 191.491 317.788 229.364 345.712 257.288C373.636 285.212 411.509 300.9 451 300.9C490.491 300.9 528.364 285.212 556.288 257.288C584.212 229.364 599.9 191.491 599.9 152" stroke="#171717" stroke-width="2.2"/>
<path d="M602.1 152C602.1 112.509 617.788 74.636 645.712 46.7118C673.636 18.7876 711.509 3.1 751 3.1C790.491 3.1 828.364 18.7876 856.288 46.7118C884.212 74.636 899.9 112.509 899.9 152" stroke="#171717" stroke-width="2.2"/>
<path d="M902.1 152C902.1 191.491 917.788 229.364 945.712 257.288C973.636 285.212 1011.51 300.9 1051 300.9C1090.49 300.9 1128.36 285.212 1156.29 257.288C1184.21 229.364 1199.9 191.491 1199.9 152" stroke="#171717" stroke-width="2.2"/>
<circle cx="301" cy="155" r="21" fill="#171717"/>
<path d="M309.066 154.156L309.066 154.156L304.86 149.95C304.635 149.725 304.334 149.6 304.016 149.6C303.698 149.6 303.397 149.725 303.172 149.95C302.947 150.175 302.822 150.476 302.822 150.794L302.822 150.794C302.822 151.112 302.947 151.413 303.172 151.638L303.172 151.638L305.341 153.807L293.777 153.807C293.119 153.807 292.584 154.342 292.584 155L292.584 155C292.584 155.318 292.709 155.619 292.934 155.844C293.159 156.069 293.459 156.193 293.777 156.193L305.341 156.193L303.172 158.362C302.947 158.587 302.822 158.888 302.822 159.206C302.822 159.524 302.947 159.825 303.172 160.05L303.172 160.05C303.637 160.515 304.394 160.515 304.86 160.05L309.066 155.844C309.531 155.378 309.531 154.622 309.066 154.156Z" fill="white" stroke="white" stroke-width="0.6"/>
<circle cx="601" cy="155" r="21" fill="#171717"/>
<path d="M609.551 154.156L609.551 154.156L605.345 149.95C605.12 149.725 604.819 149.6 604.501 149.6C604.183 149.6 603.882 149.725 603.657 149.95C603.432 150.175 603.308 150.476 603.308 150.794L603.308 150.794C603.308 151.112 603.432 151.413 603.657 151.638L603.657 151.638L605.826 153.807L594.263 153.807C593.605 153.807 593.069 154.342 593.069 155L593.069 155C593.07 155.318 593.194 155.619 593.419 155.844C593.644 156.069 593.945 156.193 594.263 156.193L605.826 156.193L603.657 158.362C603.432 158.587 603.308 158.888 603.308 159.206C603.308 159.524 603.432 159.825 603.657 160.05L603.657 160.05C604.123 160.515 604.879 160.515 605.345 160.05L609.551 155.844C610.017 155.378 610.017 154.622 609.551 154.156Z" fill="white" stroke="white" stroke-width="0.6"/>
<circle cx="901" cy="155" r="21" fill="#171717"/>
<path d="M909.551 154.156L909.551 154.156L905.345 149.95C905.12 149.725 904.819 149.6 904.501 149.6C904.183 149.6 903.882 149.725 903.657 149.95C903.432 150.175 903.308 150.476 903.308 150.794L903.308 150.794C903.308 151.112 903.432 151.413 903.657 151.638L903.657 151.638L905.826 153.807L894.263 153.807C893.605 153.807 893.069 154.342 893.069 155L893.069 155C893.07 155.318 893.194 155.619 893.419 155.844C893.644 156.069 893.945 156.193 894.263 156.193L905.826 156.193L903.657 158.362C903.432 158.587 903.308 158.888 903.308 159.206C903.308 159.524 903.432 159.825 903.657 160.05L903.657 160.05C904.123 160.515 904.879 160.515 905.345 160.05L909.551 155.844C910.017 155.378 910.017 154.622 909.551 154.156Z" fill="white" stroke="white" stroke-width="0.6"/>
<defs>
<linearGradient id="paint0_linear_478_910" x1="1.99976" y1="151.2" x2="682" y2="151" gradientUnits="userSpaceOnUse">
<stop stop-color="#171717"/>
<stop offset="1" stop-color="#171717" stop-opacity="0.4"/>
</linearGradient>
</defs>
</svg>
